<svg width="50" height="132" viewBox="0 0 50 132" fill="none" xmlns="http://www.w3.org/2000/svg">
<path d="M36.0742 203.022C53.2512 186.72 53.3307 185.527 39.1756 170.656C28.7581 159.762 27.3267 157.058 26.5315 147.356C25.6567 136.461 28.281 130.815 39.4142 119.364C52.456 105.925 52.456 103.539 39.9709 91.2924C34.0862 85.4872 31.4619 82.3063 29.3943 78.2506C26.8496 73.0816 26.6905 72.2864 26.6905 64.7317C26.6905 58.2903 27.0086 56.1432 28.281 53.5985C31.3824 47.4752 34.6428 43.2605 40.448 37.8529C51.8993 27.1173 52.0584 23.2207 41.4818 12.3261C30.8257 1.43141 28.9967 -2.43364e-07 24.7025 -2.94572e-07C20.4082 -3.4578e-07 18.5792 1.43141 7.92313 12.3261C-2.89199 23.4593 -2.5739 26.6402 10.2293 39.1253C15.5573 44.3738 18.0225 47.4752 20.3287 52.008C23.2711 57.8132 23.2711 57.9722 22.953 65.3679C22.4758 75.9444 20.4082 79.841 9.51359 91.1333C-3.05104 104.175 -3.05104 105.766 10.0702 119.364C21.1239 130.815 23.7482 136.461 22.8734 147.356C22.0782 157.058 20.6468 159.762 10.2293 170.656C-3.92579 185.527 -3.84627 186.72 13.3307 203.022C20.5673 209.861 20.8058 209.941 24.7025 209.941C28.5991 209.941 28.8377 209.861 36.0742 203.022Z" fill="#007844" fill-opacity="0.05"/>
</svg>
