<svg width="31" height="41" viewBox="0 0 31 41" fill="none" xmlns="http://www.w3.org/2000/svg">
<path d="M12.195 9.95422C10.8119 12.3384 8.68063 14.1732 6.61713 15.9936C4.55366 17.8139 2.47178 19.7272 1.23984 22.1937C-3.70575 32.0949 7.11964 41.3234 16.507 40.5115C22.3406 40.007 27.9471 35.9672 30.0172 30.4039C33.4962 21.0544 27.1502 9.23549 20.1969 3.144C19.2933 2.35233 13.0802 -1.9233 12.7174 1.02275C12.5676 2.23956 13.4764 3.66426 13.5295 4.91927C13.6038 6.6751 13.0698 8.4461 12.195 9.95422Z" fill="#78D864"/>
<path d="M2.42904 23.0022C1.43785 25.1598 1.21054 27.6628 1.79659 29.9652C1.92021 30.451 2.08148 30.9336 2.35132 31.3554C2.62113 31.7773 3.00927 32.137 3.48206 32.297C4.31784 32.58 5.26522 32.1797 5.86443 31.5291C6.46364 30.8785 6.78159 30.0206 7.05165 29.1765C7.87685 26.5974 8.38937 23.9173 8.57429 21.2144C8.64276 20.2137 8.47521 17.5809 6.83079 18.2636C5.59292 18.7775 4.45707 19.9471 3.65017 20.9901C3.16933 21.6116 2.75749 22.2873 2.42904 23.0022Z" fill="white"/>
<path d="M9.34474 15.4708C9.18632 15.6763 9.04013 15.8977 8.9688 16.1477C8.89746 16.3976 8.90931 16.6816 9.05046 16.8995C9.22662 17.1714 9.574 17.2922 9.89631 17.2743C10.2186 17.2564 10.5223 17.1217 10.8105 16.9756C11.4669 16.6429 12.1088 16.219 12.4972 15.5914C12.7521 15.1795 12.8775 14.6617 12.7942 14.1798C12.6813 13.5272 12.4537 13.4399 11.8735 13.6448C10.881 13.9953 9.98975 14.6344 9.34474 15.4708Z" fill="white"/>
<g opacity="0.2" style="mix-blend-mode:multiply">
<path d="M25.1489 8.65112C25.1888 8.74239 25.2261 8.83158 25.2585 8.9171C26.1531 11.2793 26.834 13.729 27.177 16.2358C27.9038 21.5484 27.0095 27.2356 23.8873 31.5835C20.765 35.9315 15.2077 38.655 9.97742 37.6027C7.75124 37.1548 5.70427 36.0856 3.56148 35.3315C3.5143 35.3149 3.46634 35.2994 3.41895 35.2831C6.67747 38.7773 11.7745 40.9208 16.5072 40.5115C22.3409 40.007 27.9474 35.9671 30.0175 30.4039C32.6277 23.389 29.707 14.9842 25.1489 8.65112Z" fill="#5E94EB"/>
</g>
</svg>
