<svg width="56" height="56" viewBox="0 0 56 56" fill="none" xmlns="http://www.w3.org/2000/svg">
<rect width="56" height="56" rx="10" fill="#EEF8EE"/>
<path d="M29.0002 35.1276C21.347 35.1276 16.9817 29.7768 16.7998 20.873H20.6334C20.7593 27.4082 23.5856 30.1763 25.8242 30.7471V20.873H29.4339V26.5092C31.6445 26.2667 33.9671 23.6983 34.7506 20.873H38.3603C38.0651 22.3383 37.4766 23.7256 36.6315 24.9483C35.7865 26.171 34.7032 27.2027 33.4494 27.9789C34.849 28.6882 36.0852 29.692 37.0764 30.9243C38.0676 32.1565 38.7913 33.5891 39.1998 35.1276H35.2263C34.8596 33.7913 34.1144 32.5952 33.084 31.689C32.0536 30.7829 30.7838 30.207 29.4339 30.0336V35.1276H29.0002Z" fill="#007844"/>
</svg>
